<svg width="248" height="36" viewBox="0 0 248 36" fill="none" xmlns="http://www.w3.org/2000/svg">
<path d="M62.9351 10.7135V23.5886C62.9351 23.7872 62.8928 23.9761 62.8049 24.1552C62.717 24.3343 62.5998 24.4873 62.4467 24.6143C62.2937 24.7413 62.1179 24.8423 61.9127 24.9171C61.7108 24.992 61.4927 25.0311 61.2582 25.0311C61.0238 25.0311 60.8251 24.992 60.6265 24.9171C60.4279 24.8423 60.2553 24.7413 60.1088 24.6143C59.9623 24.4873 59.845 24.3375 59.7571 24.1552C59.6692 23.9728 59.6269 23.7872 59.6269 23.5886V10.7135H55.0779C54.8533 10.7135 54.6416 10.6744 54.4397 10.5995C54.2379 10.5246 54.0621 10.4172 53.9155 10.2837C53.769 10.1501 53.6518 9.99061 53.5671 9.81152C53.4792 9.63242 53.4369 9.44357 53.4369 9.24494C53.4369 9.04631 53.4792 8.84767 53.5671 8.67184C53.6518 8.496 53.769 8.34295 53.9155 8.2127C54.0621 8.08245 54.2379 7.97827 54.4397 7.90337C54.6416 7.82848 54.8565 7.78937 55.0779 7.78937H67.4808C67.7152 7.78937 67.9301 7.82848 68.1287 7.90337C68.3274 7.97827 68.5 8.08571 68.6465 8.21922C68.793 8.35272 68.9102 8.509 68.9981 8.68484C69.0828 8.86067 69.1284 9.04953 69.1284 9.25793C69.1284 9.46633 69.086 9.6552 68.9981 9.83103C68.9102 10.0069 68.7963 10.1599 68.6465 10.2902C68.5 10.4204 68.3274 10.5246 68.1287 10.5995C67.9301 10.6744 67.7152 10.7135 67.4808 10.7135H62.9286H62.9351Z" fill="url(#paint0_linear_1023_42)"/>
<path d="M81.8665 7.66916C83.2373 7.66916 84.5236 7.89713 85.7316 8.35626C86.9396 8.81539 87.9914 9.44055 88.8901 10.2351C89.7888 11.0296 90.4954 11.9576 91.0131 13.0224C91.5308 14.0872 91.7881 15.2236 91.7881 16.4349C91.7881 17.2425 91.6676 18.0207 91.4299 18.7664C91.1922 19.5121 90.8601 20.2089 90.4335 20.8536C90.0069 21.4983 89.4892 22.091 88.8803 22.625C88.2714 23.159 87.6006 23.6182 86.8713 23.9991C86.1419 24.3801 85.3506 24.6765 84.504 24.8816C83.6574 25.0867 82.7749 25.1909 81.8632 25.1909C80.4924 25.1909 79.2062 24.963 78.0047 24.5039C76.8032 24.0447 75.7579 23.4195 74.869 22.625C73.98 21.8305 73.28 20.9025 72.7687 19.8442C72.2575 18.7859 72.0003 17.6495 72.0003 16.4382C72.0003 15.6306 72.1175 14.8524 72.3487 14.1067C72.5831 13.361 72.912 12.6642 73.3386 12.013C73.7651 11.3617 74.2763 10.7691 74.8755 10.2351C75.4746 9.70105 76.1389 9.24519 76.8683 8.86747C77.5977 8.48975 78.3857 8.1967 79.2258 7.98505C80.0691 7.77339 80.945 7.66916 81.86 7.66916H81.8665ZM81.8828 10.5933C80.971 10.5933 80.1147 10.7463 79.3169 11.0524C78.5192 11.3585 77.8256 11.7753 77.2329 12.306C76.6403 12.8368 76.1715 13.4555 75.8263 14.1654C75.4812 14.8752 75.3086 15.6339 75.3086 16.4415C75.3086 17.249 75.4812 18.0207 75.8263 18.7306C76.1715 19.4404 76.6403 20.0559 77.2329 20.5834C77.8256 21.1076 78.5224 21.5212 79.3169 21.8207C80.1147 22.1203 80.9678 22.2734 81.8828 22.2734C82.7978 22.2734 83.6574 22.1236 84.4617 21.8207C85.2693 21.5212 85.9693 21.1076 86.5619 20.5834C87.1546 20.0591 87.6234 19.4404 87.9686 18.7306C88.3137 18.0207 88.4863 17.2588 88.4863 16.4415C88.4863 15.6241 88.3137 14.8752 87.9686 14.1654C87.6234 13.4555 87.1546 12.8368 86.5619 12.306C85.9693 11.7753 85.2693 11.3585 84.4617 11.0524C83.6542 10.7463 82.7945 10.5933 81.8828 10.5933Z" fill="url(#paint1_linear_1023_42)"/>
<path d="M104.91 7.78958C105.926 7.78958 106.874 7.95892 107.756 8.29431C108.639 8.6297 109.411 9.08882 110.068 9.66843C110.729 10.248 111.247 10.9286 111.628 11.7166C112.009 12.5014 112.198 13.3382 112.198 14.2271C112.198 15.1161 112.009 15.9464 111.628 16.7182C111.247 17.4899 110.729 18.1672 110.068 18.7435C109.407 19.3231 108.636 19.779 107.747 20.1112C106.858 20.4433 105.907 20.6093 104.894 20.6093H100.984V23.5855C100.984 23.7842 100.941 23.973 100.853 24.1521C100.765 24.3312 100.648 24.4843 100.495 24.6112C100.342 24.7382 100.169 24.8392 99.9709 24.9141C99.7722 24.989 99.5573 25.0281 99.3229 25.0281C99.0884 25.0281 98.8866 24.989 98.6847 24.9141C98.4828 24.8392 98.3069 24.7382 98.1604 24.6112C98.0139 24.4843 97.8967 24.3345 97.8088 24.1521C97.7209 23.9698 97.6785 23.7842 97.6785 23.5855V9.25488C97.6785 9.04974 97.7209 8.85439 97.8088 8.6753C97.8934 8.49621 98.0106 8.33989 98.1604 8.20964C98.3102 8.07939 98.4828 7.97521 98.6847 7.90032C98.8866 7.82542 99.1015 7.78636 99.3229 7.78636H104.907L104.91 7.78958ZM100.984 10.7137V17.6885H104.956C105.503 17.6885 106.018 17.5941 106.5 17.4052C106.981 17.2164 107.398 16.9624 107.756 16.6433C108.111 16.3242 108.391 15.9562 108.593 15.5394C108.795 15.1226 108.896 14.683 108.896 14.2271C108.896 13.7713 108.792 13.3284 108.583 12.9084C108.375 12.4851 108.095 12.1106 107.74 11.785C107.385 11.4561 106.968 11.1956 106.493 11.0035C106.014 10.8114 105.503 10.7137 104.956 10.7137H100.984Z" fill="url(#paint2_linear_1023_42)"/>
<path d="M127.756 21.7293H119.049L117.906 24.1519C117.763 24.4385 117.557 24.6566 117.29 24.8064C117.02 24.9529 116.724 25.0278 116.401 25.0278C116.177 25.0278 115.939 24.9823 115.685 24.8943C115.46 24.8129 115.278 24.7022 115.138 24.5655C114.995 24.4254 114.891 24.2724 114.825 24.0998C114.76 23.9273 114.734 23.7449 114.75 23.5462C114.767 23.3476 114.819 23.1555 114.91 22.9667L121.865 8.67836C122.009 8.39181 122.21 8.17038 122.474 8.01733C122.738 7.86429 123.044 7.78937 123.386 7.78937C123.711 7.78937 124.005 7.86429 124.268 8.01733C124.532 8.17038 124.734 8.38528 124.877 8.66206L131.878 22.9634C132.06 23.3411 132.09 23.7123 131.963 24.0803C131.836 24.4482 131.559 24.7185 131.132 24.8878C130.917 24.979 130.686 25.0213 130.432 25.0213C130.107 25.0213 129.807 24.9465 129.534 24.7934C129.26 24.6404 129.052 24.4255 128.908 24.1454L127.752 21.7228L127.756 21.7293ZM120.374 18.8085H126.385L123.402 12.4653L120.374 18.8085Z" fill="url(#paint3_linear_1023_42)"/>
<path d="M152.487 10.2548C152.812 10.5414 152.975 10.88 152.975 11.2708C152.975 11.6615 152.812 12.0002 152.487 12.2867C152.324 12.43 152.138 12.5374 151.93 12.6091C151.721 12.6807 151.51 12.7165 151.298 12.7165C151.086 12.7165 150.878 12.684 150.683 12.6156C150.484 12.5472 150.308 12.4463 150.158 12.3127C149.497 11.7299 148.765 11.2968 147.96 11.0135C147.153 10.7302 146.319 10.5902 145.456 10.5902C144.594 10.5902 143.718 10.74 142.923 11.0429C142.125 11.3424 141.432 11.7559 140.839 12.2802C140.247 12.8044 139.774 13.4231 139.423 14.133C139.071 14.8429 138.899 15.6048 138.899 16.4221C138.899 17.2394 139.065 17.946 139.393 18.6526C139.722 19.356 140.178 19.9779 140.764 20.5119C141.347 21.046 142.037 21.4725 142.835 21.7916C143.633 22.1107 144.493 22.2735 145.414 22.2833C146.349 22.2833 147.198 22.1433 147.97 21.86C148.742 21.5767 149.462 21.1469 150.132 20.5738C150.285 20.4403 150.461 20.3394 150.666 20.271C150.871 20.2026 151.083 20.17 151.305 20.17C151.506 20.17 151.712 20.2026 151.913 20.271C152.115 20.3394 152.294 20.4338 152.447 20.5608C152.61 20.7041 152.731 20.8669 152.812 21.046C152.894 21.2251 152.933 21.4106 152.933 21.5995C152.933 21.7884 152.89 21.9707 152.812 22.1531C152.731 22.3322 152.614 22.4885 152.464 22.6252C151.48 23.4979 150.38 24.1459 149.169 24.5724C147.957 24.999 146.7 25.2106 145.401 25.2106C144.509 25.2106 143.643 25.1065 142.806 24.8948C141.969 24.6831 141.188 24.3901 140.462 24.0124C139.735 23.6347 139.074 23.1788 138.475 22.6447C137.876 22.1107 137.365 21.5181 136.938 20.8669C136.512 20.2156 136.183 19.5188 135.948 18.7731C135.714 18.0274 135.597 17.2557 135.597 16.4579C135.597 15.6601 135.707 14.934 135.932 14.2014C136.157 13.4687 136.473 12.7817 136.883 12.1337C137.293 11.4857 137.795 10.8898 138.381 10.3428C138.97 9.79571 139.628 9.32353 140.361 8.92952C141.09 8.53552 141.888 8.22619 142.751 8.00803C143.613 7.7866 144.522 7.67915 145.476 7.67915C146.756 7.67915 147.996 7.89405 149.204 8.32713C150.412 8.76021 151.506 9.40497 152.493 10.2679L152.487 10.2548Z" fill="url(#paint4_linear_1023_42)"/>
<path d="M162.151 23.5886C162.151 23.7872 162.109 23.9761 162.021 24.1552C161.933 24.3343 161.815 24.4873 161.662 24.6143C161.509 24.7413 161.337 24.8423 161.138 24.9171C160.94 24.992 160.725 25.0311 160.49 25.0311C160.256 25.0311 160.054 24.992 159.852 24.9171C159.65 24.8423 159.474 24.7413 159.328 24.6143C159.181 24.4873 159.064 24.3375 158.976 24.1552C158.888 23.9728 158.846 23.7872 158.846 23.5886V9.2319C158.846 9.02676 158.888 8.83464 158.976 8.6588C159.061 8.48296 159.178 8.32991 159.328 8.19966C159.474 8.06941 159.65 7.96849 159.852 7.89685C160.054 7.82522 160.269 7.78937 160.49 7.78937C160.712 7.78937 160.94 7.82522 161.138 7.89685C161.337 7.96849 161.513 8.06941 161.662 8.19966C161.815 8.32991 161.933 8.48296 162.021 8.6588C162.105 8.83464 162.151 9.0235 162.151 9.2319V23.5886Z" fill="url(#paint5_linear_1023_42)"/>
<path d="M177.872 7.66916C179.243 7.66916 180.529 7.89713 181.737 8.35626C182.945 8.81539 183.997 9.44055 184.895 10.2351C185.794 11.0296 186.501 11.9576 187.018 13.0224C187.536 14.0872 187.793 15.2236 187.793 16.4349C187.793 17.2425 187.673 18.0207 187.435 18.7664C187.197 19.5121 186.865 20.2089 186.439 20.8536C186.012 21.4983 185.494 22.091 184.885 22.625C184.277 23.159 183.606 23.6182 182.876 23.9991C182.147 24.3801 181.356 24.6765 180.509 24.8816C179.663 25.0867 178.78 25.1909 177.868 25.1909C176.498 25.1909 175.211 24.963 174.01 24.5039C172.808 24.0447 171.763 23.4195 170.874 22.625C169.985 21.8305 169.285 20.9025 168.774 19.8442C168.263 18.7859 168.005 17.6495 168.005 16.4382C168.005 15.6306 168.123 14.8524 168.357 14.1067C168.592 13.361 168.92 12.6642 169.347 12.013C169.774 11.3617 170.285 10.7691 170.884 10.2351C171.483 9.70105 172.147 9.24519 172.877 8.86747C173.606 8.48975 174.394 8.1967 175.237 7.98505C176.081 7.77339 176.957 7.66916 177.872 7.66916ZM177.888 10.5933C176.976 10.5933 176.12 10.7463 175.322 11.0524C174.524 11.3585 173.831 11.7753 173.238 12.306C172.645 12.8368 172.177 13.4555 171.831 14.1654C171.486 14.8752 171.314 15.6339 171.314 16.4415C171.314 17.249 171.486 18.0207 171.831 18.7306C172.177 19.4404 172.645 20.0559 173.238 20.5834C173.831 21.1076 174.528 21.5212 175.322 21.8207C176.12 22.1203 176.973 22.2734 177.888 22.2734C178.803 22.2734 179.663 22.1236 180.467 21.8207C181.274 21.5212 181.974 21.1076 182.567 20.5834C183.16 20.0591 183.629 19.4404 183.974 18.7306C184.319 18.0207 184.491 17.2588 184.491 16.4415C184.491 15.6241 184.319 14.8752 183.974 14.1654C183.629 13.4555 183.16 12.8368 182.567 12.306C181.974 11.7753 181.274 11.3585 180.467 11.0524C179.659 10.7463 178.8 10.5933 177.888 10.5933Z" fill="url(#paint6_linear_1023_42)"/>
<path d="M195.328 25.0281C195.103 25.0281 194.892 24.989 194.69 24.9141C194.488 24.8392 194.312 24.7382 194.165 24.6112C194.019 24.4843 193.902 24.3345 193.817 24.1521C193.729 23.973 193.687 23.7842 193.687 23.5855V9.22884C193.687 9.0237 193.729 8.83158 193.817 8.65574C193.902 8.47991 194.019 8.32685 194.165 8.19661C194.312 8.06636 194.488 7.96544 194.69 7.8938C194.892 7.82216 195.107 7.78636 195.328 7.78636H202.312C203.065 7.78636 203.765 7.91332 204.419 8.16405C205.074 8.41478 205.644 8.75669 206.132 9.18651C206.62 9.61633 207.001 10.1211 207.281 10.7007C207.562 11.2803 207.702 11.9022 207.702 12.5665C207.702 13.1852 207.578 13.7778 207.327 14.3444C207.08 14.9109 206.734 15.4222 206.301 15.8813C206.949 16.3763 207.467 16.9689 207.845 17.6657C208.226 18.3626 208.415 19.1147 208.415 19.9223C208.415 20.6419 208.258 21.3094 207.949 21.9281C207.64 22.5468 207.22 23.0873 206.686 23.5432C206.152 24.0023 205.53 24.3638 204.813 24.6275C204.097 24.8913 203.328 25.0248 202.508 25.0248H195.325L195.328 25.0281ZM196.989 10.7137V14.6472H202.192C202.495 14.6374 202.785 14.5788 203.052 14.4648C203.319 14.3509 203.553 14.2076 203.752 14.0285C203.95 13.8494 204.103 13.6411 204.217 13.4033C204.328 13.1656 204.384 12.9214 204.384 12.6707C204.384 12.4004 204.322 12.1497 204.201 11.9152C204.081 11.6808 203.915 11.4756 203.706 11.2965C203.498 11.1174 203.257 10.9742 202.983 10.8733C202.71 10.7691 202.42 10.717 202.117 10.717H196.989V10.7137ZM196.989 17.568V22.1072H202.391C202.765 22.1072 203.12 22.0421 203.449 21.9118C203.778 21.7816 204.068 21.6058 204.315 21.3811C204.563 21.1564 204.758 20.9024 204.901 20.6126C205.044 20.3228 205.113 20.0233 205.113 19.7107C205.113 19.3981 205.038 19.0952 204.892 18.8282C204.745 18.5644 204.546 18.3398 204.299 18.1542C204.051 17.9686 203.762 17.8253 203.433 17.7243C203.104 17.6201 202.755 17.568 202.391 17.568H196.989Z" fill="url(#paint7_linear_1023_42)"/>
<path d="M215.617 25.0281C215.181 24.9922 214.819 24.8424 214.53 24.5754C214.24 24.3117 214.097 23.9763 214.097 23.5725V9.25488C214.097 9.04974 214.139 8.85439 214.227 8.6753C214.312 8.49621 214.429 8.33989 214.575 8.20964C214.722 8.07939 214.898 7.97521 215.099 7.90032C215.301 7.82542 215.52 7.78636 215.754 7.78636H226.408C226.643 7.78636 226.858 7.82542 227.056 7.90032C227.255 7.97521 227.424 8.07939 227.564 8.20964C227.704 8.33989 227.821 8.49621 227.906 8.6753C227.991 8.85439 228.036 9.04648 228.036 9.25488C228.036 9.46328 227.994 9.64241 227.906 9.8215C227.821 10.0006 227.704 10.1569 227.564 10.2871C227.421 10.4174 227.252 10.5215 227.056 10.5964C226.858 10.6713 226.643 10.7104 226.408 10.7104H217.398V14.7254H224.445C224.679 14.7254 224.894 14.7644 225.093 14.8393C225.291 14.9142 225.464 15.0217 225.61 15.1552C225.757 15.2887 225.874 15.4482 225.959 15.6273C226.044 15.8064 226.089 15.9986 226.089 16.207C226.089 16.4153 226.047 16.5912 225.959 16.767C225.874 16.9428 225.757 17.0959 225.61 17.2262C225.464 17.3564 225.291 17.4573 225.093 17.529C224.894 17.6006 224.679 17.6364 224.445 17.6364H217.398V22.1072H226.408C226.643 22.1072 226.858 22.1463 227.056 22.2212C227.255 22.2961 227.424 22.4035 227.564 22.537C227.704 22.6705 227.821 22.8301 227.906 23.0092C227.991 23.1883 228.036 23.3804 228.036 23.5888C228.036 24.0121 227.88 24.3573 227.571 24.6243C227.261 24.8913 226.874 25.0281 226.405 25.0281H215.614H215.617Z" fill="url(#paint8_linear_1023_42)"/>
<path d="M241.81 10.7135V23.5886C241.81 23.7872 241.768 23.9761 241.68 24.1552C241.592 24.3343 241.475 24.4873 241.322 24.6143C241.169 24.7413 240.993 24.8423 240.788 24.9171C240.586 24.992 240.368 25.0311 240.133 25.0311C239.899 25.0311 239.7 24.992 239.501 24.9171C239.303 24.8423 239.13 24.7413 238.984 24.6143C238.837 24.4873 238.72 24.3375 238.635 24.1552C238.547 23.9761 238.505 23.7872 238.505 23.5886V10.7135H233.953C233.728 10.7135 233.516 10.6744 233.315 10.5995C233.113 10.5246 232.937 10.4172 232.79 10.2837C232.644 10.1501 232.527 9.99061 232.442 9.81152C232.354 9.63242 232.312 9.44357 232.312 9.24494C232.312 9.04631 232.354 8.84767 232.442 8.67184C232.527 8.496 232.644 8.34295 232.79 8.2127C232.937 8.08245 233.113 7.97827 233.315 7.90337C233.516 7.82848 233.732 7.78937 233.953 7.78937H246.356C246.59 7.78937 246.805 7.82848 247.004 7.90337C247.202 7.97827 247.375 8.08571 247.521 8.21922C247.668 8.35272 247.785 8.509 247.87 8.68484C247.954 8.86067 248 9.04953 248 9.25793C248 9.46633 247.958 9.6552 247.87 9.83103C247.782 10.0069 247.668 10.1599 247.521 10.2902C247.375 10.4204 247.202 10.5246 247.004 10.5995C246.805 10.6744 246.59 10.7135 246.356 10.7135H241.804H241.81Z" fill="url(#paint9_linear_1023_42)"/>
<path d="M0.0224836 10.2211C-0.0849703 10.6509 0.214547 10.97 0.458761 11.2956C5.23558 17.3294 16.7039 31.8261 19.1199 34.8707C19.4586 35.2647 19.6931 35.6718 20.1392 35.0856C21.9985 32.8291 23.6689 30.7321 26.2412 27.567C31.093 21.5691 36.8141 14.5356 39.1032 11.6897C39.673 11.0026 39.826 10.5337 39.3083 9.67078C37.6541 6.92253 35.4335 3.71191 33.7435 1.14601C33.4049 0.680367 33.0955 0.204946 32.5419 0.0746966C31.6953 -0.0555524 30.9855 0.0291222 29.9142 0.00632863C23.975 0.0193535 13.0374 -0.0132389 7.58984 0.0160671C7.29679 0.029092 7.07213 0.0551402 6.8735 0.136546C6.21901 0.449143 5.8575 1.19485 5.42118 1.79399C4.19034 3.66307 2.05436 6.87696 0.77468 8.83069C0.488136 9.27679 0.162503 9.74243 0.025743 10.2081V10.2211H0.0224836ZM27.1757 10.3481C6.33944 8.16317 8.32898 3.6891 9.84961 3.69236C14.6622 3.69236 25.0267 3.56863 30.051 3.7054C31.0115 3.82588 31.4023 4.2394 32.0926 5.11207C32.8676 6.13778 33.8444 7.6845 34.5347 8.87628C35.1925 10.0094 35.3618 10.6216 34.4924 11.5952C31.5423 15.0631 23.8219 25.2583 20.3378 28.9607C19.4163 29.4816 18.5599 28.2117 17.9412 27.6158C16.9904 26.5055 15.3721 24.8057 15.0725 23.7605C14.8055 22.7706 15.9029 22.3733 16.6974 22.1356C18.4687 21.6407 19.5009 21.3639 21.2951 21.0904C22.4901 20.908 23.4181 20.7843 22.171 20.6768C20.6374 20.5498 17.4625 20.4033 14.8706 20.0418C13.376 19.8335 12.3634 19.1269 11.9335 18.0588C11.4646 16.8931 12.4937 14.9361 13.2914 14.1969C15.6749 11.9892 27.1757 10.3513 27.1757 10.3513V10.3481Z" fill="url(#paint10_linear_1023_42)"/>
<defs>
<linearGradient id="paint0_linear_1023_42" x1="9.27928" y1="-1.34227" x2="21.8187" y2="81.1709" gradientUnits="userSpaceOnUse">
<stop stop-color="#E3F2FA"/>
<stop offset="0.499" stop-color="#0994FD"/>
<stop offset="1" stop-color="#123EA5"/>
</linearGradient>
<linearGradient id="paint1_linear_1023_42" x1="9.27928" y1="-1.34227" x2="21.8187" y2="81.1709" gradientUnits="userSpaceOnUse">
<stop stop-color="#E3F2FA"/>
<stop offset="0.499" stop-color="#0994FD"/>
<stop offset="1" stop-color="#123EA5"/>
</linearGradient>
<linearGradient id="paint2_linear_1023_42" x1="9.27928" y1="-1.34227" x2="21.8187" y2="81.1709" gradientUnits="userSpaceOnUse">
<stop stop-color="#E3F2FA"/>
<stop offset="0.499" stop-color="#0994FD"/>
<stop offset="1" stop-color="#123EA5"/>
</linearGradient>
<linearGradient id="paint3_linear_1023_42" x1="9.27928" y1="-1.34227" x2="21.8187" y2="81.1709" gradientUnits="userSpaceOnUse">
<stop stop-color="#E3F2FA"/>
<stop offset="0.499" stop-color="#0994FD"/>
<stop offset="1" stop-color="#123EA5"/>
</linearGradient>
<linearGradient id="paint4_linear_1023_42" x1="9.27928" y1="-1.34227" x2="21.8187" y2="81.1709" gradientUnits="userSpaceOnUse">
<stop stop-color="#E3F2FA"/>
<stop offset="0.499" stop-color="#0994FD"/>
<stop offset="1" stop-color="#123EA5"/>
</linearGradient>
<linearGradient id="paint5_linear_1023_42" x1="9.27928" y1="-1.34227" x2="21.8187" y2="81.1709" gradientUnits="userSpaceOnUse">
<stop stop-color="#E3F2FA"/>
<stop offset="0.499" stop-color="#0994FD"/>
<stop offset="1" stop-color="#123EA5"/>
</linearGradient>
<linearGradient id="paint6_linear_1023_42" x1="9.27928" y1="-1.34227" x2="21.8187" y2="81.1709" gradientUnits="userSpaceOnUse">
<stop stop-color="#E3F2FA"/>
<stop offset="0.499" stop-color="#0994FD"/>
<stop offset="1" stop-color="#123EA5"/>
</linearGradient>
<linearGradient id="paint7_linear_1023_42" x1="9.27928" y1="-1.34227" x2="21.8187" y2="81.1709" gradientUnits="userSpaceOnUse">
<stop stop-color="#E3F2FA"/>
<stop offset="0.499" stop-color="#0994FD"/>
<stop offset="1" stop-color="#123EA5"/>
</linearGradient>
<linearGradient id="paint8_linear_1023_42" x1="9.27928" y1="-1.34227" x2="21.8187" y2="81.1709" gradientUnits="userSpaceOnUse">
<stop stop-color="#E3F2FA"/>
<stop offset="0.499" stop-color="#0994FD"/>
<stop offset="1" stop-color="#123EA5"/>
</linearGradient>
<linearGradient id="paint9_linear_1023_42" x1="9.27928" y1="-1.34227" x2="21.8187" y2="81.1709" gradientUnits="userSpaceOnUse">
<stop stop-color="#E3F2FA"/>
<stop offset="0.499" stop-color="#0994FD"/>
<stop offset="1" stop-color="#123EA5"/>
</linearGradient>
<linearGradient id="paint10_linear_1023_42" x1="9.27928" y1="-1.34227" x2="21.8187" y2="81.1709" gradientUnits="userSpaceOnUse">
<stop stop-color="#E3F2FA"/>
<stop offset="0.499" stop-color="#0994FD"/>
<stop offset="1" stop-color="#123EA5"/>
</linearGradient>
</defs>
</svg>
